<svg width="43" height="43" viewBox="0 0 43 43" fill="none" xmlns="http://www.w3.org/2000/svg">
<g id="Frame" clip-path="url(#clip0_56_121)">
<path id="Vector" fill-rule="evenodd" clip-rule="evenodd" d="M42.2491 8.63734C43.3583 11.3153 43.3583 14.7102 43.3583 21.5C43.3583 28.2897 43.3583 31.6848 42.2491 34.3627C40.77 37.9333 37.9333 40.7701 34.3626 42.2491C31.6847 43.3583 28.2896 43.3583 21.4999 43.3583H14.2138C7.34441 43.3583 3.90971 43.3583 1.77566 41.2242C-0.358398 39.0901 -0.358398 35.6555 -0.358398 28.7861V21.5C-0.358398 14.7102 -0.358398 11.3153 0.750839 8.63734C2.22985 5.06673 5.06667 2.22991 8.63728 0.750901C11.3152 -0.358337 14.7101 -0.358337 21.4999 -0.358337C28.2896 -0.358337 31.6847 -0.358337 34.3626 0.750901C37.9333 2.22991 40.77 5.06673 42.2491 8.63734ZM11.7851 16.6418C11.7851 15.3004 12.8725 14.2131 14.2138 14.2131H28.786C30.1274 14.2131 31.2148 15.3004 31.2148 16.6418C31.2148 17.983 30.1274 19.0706 28.786 19.0706H14.2138C12.8725 19.0706 11.7851 17.983 11.7851 16.6418ZM11.7851 26.3567C11.7851 25.0153 12.8725 23.928 14.2138 23.928H21.4999C22.8413 23.928 23.9286 25.0153 23.9286 26.3567C23.9286 27.6978 22.8413 28.7854 21.4999 28.7854H14.2138C12.8725 28.7854 11.7851 27.6978 11.7851 26.3567Z" fill="white"/>
</g>
<defs>
<clipPath id="clip0_56_121">
<rect width="43" height="43" fill="white"/>
</clipPath>
</defs>
</svg>
