<svg width="43" height="43" viewBox="0 0 43 43" fill="none" xmlns="http://www.w3.org/2000/svg">
<g id="CHAT" clip-path="url(#clip0_56_91)">
<path id="Vector" fill-rule="evenodd" clip-rule="evenodd" d="M42.2491 8.63734C43.3583 11.3153 43.3583 14.7102 43.3583 21.5C43.3583 28.2897 43.3583 31.6848 42.2491 34.3627C40.7701 37.9333 37.9333 40.7701 34.3627 42.2491C31.6848 43.3583 28.2897 43.3583 21.5 43.3583H14.2139C7.34447 43.3583 3.90977 43.3583 1.77572 41.2242C-0.358337 39.0901 -0.358337 35.6555 -0.358337 28.7861V21.5C-0.358337 14.7102 -0.358337 11.3153 0.7509 8.63734C2.22991 5.06673 5.06673 2.22991 8.63734 0.7509C11.3153 -0.358337 14.7102 -0.358337 21.5 -0.358337C28.2897 -0.358337 31.6848 -0.358337 34.3627 0.7509C37.9333 2.22991 40.7701 5.06673 42.2491 8.63734ZM11.7852 16.6418C11.7852 15.3004 12.8726 14.2131 14.2139 14.2131H28.7861C30.1275 14.2131 31.2148 15.3004 31.2148 16.6418C31.2148 17.983 30.1275 19.0706 28.7861 19.0706H14.2139C12.8726 19.0706 11.7852 17.983 11.7852 16.6418ZM11.7852 26.3567C11.7852 25.0153 12.8726 23.928 14.2139 23.928H21.5C22.8414 23.928 23.9287 25.0153 23.9287 26.3567C23.9287 27.6978 22.8414 28.7854 21.5 28.7854H14.2139C12.8726 28.7854 11.7852 27.6978 11.7852 26.3567Z" fill="#222222"/>
</g>
<defs>
<clipPath id="clip0_56_91">
<rect width="43" height="43" fill="white"/>
</clipPath>
</defs>
</svg>
