<svg width="33" height="33" viewBox="0 0 33 33" fill="none" xmlns="http://www.w3.org/2000/svg">
<g id="MOON">
<path id="Subtract" fill-rule="evenodd" clip-rule="evenodd" d="M20.625 5.5C21.8099 5.5 22.4024 5.5 22.7007 5.83554C22.8539 6.00778 22.9429 6.22779 22.9525 6.45807C22.9714 6.90666 22.3904 7.46857 21.2285 8.59238C19.1606 10.5923 17.875 13.396 17.875 16.5C17.875 19.604 19.1606 22.4077 21.2285 24.4076C22.3904 25.5314 22.9714 26.0933 22.9525 26.5419C22.9429 26.7722 22.8539 26.9922 22.7007 27.1645C22.4024 27.5 21.8099 27.5 20.625 27.5C14.5499 27.5 9.625 22.5751 9.625 16.5C9.625 10.4249 14.5499 5.5 20.625 5.5Z" fill="white"/>
</g>
</svg>
