<svg width="48" height="42" viewBox="0 0 48 42" fill="none" xmlns="http://www.w3.org/2000/svg">
<g id="Key" clip-path="url(#clip0_56_123)">
<path id="Vector" d="M10.5601 40.3296C15.5306 40.3296 19.5601 36.323 19.5601 31.3807C19.5601 26.4384 15.5306 22.4318 10.5601 22.4318C5.5895 22.4318 1.56006 26.4384 1.56006 31.3807C1.56006 36.323 5.5895 40.3296 10.5601 40.3296Z" fill="white" stroke="white" stroke-width="2"/>
<path id="Vector_2" d="M41.1814 5.15189C42.3529 3.98696 42.3529 2.09827 41.1814 0.93334C40.0099 -0.231564 38.1103 -0.231564 36.9388 0.93334L41.1814 5.15189ZM41.4388 15.5922L43.5601 17.7015L47.8027 13.483L45.6814 11.3737L41.4388 15.5922ZM35.4388 15.5922L37.5601 17.7015L41.8027 13.483L39.6814 11.3737L35.4388 15.5922ZM14.4387 23.3055C13.2672 24.4704 13.2672 26.3592 14.4387 27.524C15.6103 28.6889 17.5099 28.6889 18.6814 27.524L14.4387 23.3055ZM33.9388 20.0666L36.0601 22.1759L40.3027 17.9574L38.1814 15.8481L33.9388 20.0666ZM38.1814 8.13485L41.1814 5.15189L36.9388 0.93334L33.9388 3.91629L38.1814 8.13485ZM33.9388 8.13485L41.4388 15.5922L45.6814 11.3737L38.1814 3.91629L33.9388 8.13485ZM35.1814 11.1178L38.1814 8.13485L33.9388 3.91629L30.9388 6.89925L35.1814 11.1178ZM30.9388 11.1178L35.4388 15.5922L39.6814 11.3737L35.1814 6.89925L30.9388 11.1178ZM18.6814 27.524L32.1814 14.1008L27.9388 9.88221L14.4387 23.3055L18.6814 27.524ZM32.1814 14.1008L35.1814 11.1178L30.9388 6.89925L27.9388 9.88221L32.1814 14.1008ZM27.9388 14.1008L33.9388 20.0666L38.1814 15.8481L32.1814 9.88221L27.9388 14.1008Z" fill="white"/>
</g>
<defs>
<clipPath id="clip0_56_123">
<rect width="48" height="42" fill="white"/>
</clipPath>
</defs>
</svg>
