<svg width="48" height="42" viewBox="0 0 48 42" fill="none" xmlns="http://www.w3.org/2000/svg">
<g id="PASSWORD" clip-path="url(#clip0_56_84)">
<path id="Vector" d="M10.56 40.3296C15.5306 40.3296 19.56 36.323 19.56 31.3807C19.56 26.4384 15.5306 22.4318 10.56 22.4318C5.58943 22.4318 1.56 26.4384 1.56 31.3807C1.56 36.323 5.58943 40.3296 10.56 40.3296Z" fill="#222222" stroke="#222222" stroke-width="2"/>
<path id="Vector_2" d="M41.1813 5.15189C42.3528 3.98696 42.3528 2.09827 41.1813 0.93334C40.0098 -0.231564 38.1102 -0.231564 36.9387 0.93334L41.1813 5.15189ZM41.4387 15.5922L43.56 17.7015L47.8026 13.483L45.6813 11.3737L41.4387 15.5922ZM35.4387 15.5922L37.56 17.7015L41.8026 13.483L39.6813 11.3737L35.4387 15.5922ZM14.4387 23.3055C13.2671 24.4704 13.2671 26.3592 14.4387 27.524C15.6103 28.6889 17.5098 28.6889 18.6813 27.524L14.4387 23.3055ZM33.9387 20.0666L36.06 22.1759L40.3026 17.9574L38.1813 15.8481L33.9387 20.0666ZM38.1813 8.13485L41.1813 5.15189L36.9387 0.93334L33.9387 3.91629L38.1813 8.13485ZM33.9387 8.13485L41.4387 15.5922L45.6813 11.3737L38.1813 3.91629L33.9387 8.13485ZM35.1813 11.1178L38.1813 8.13485L33.9387 3.91629L30.9387 6.89925L35.1813 11.1178ZM30.9387 11.1178L35.4387 15.5922L39.6813 11.3737L35.1813 6.89925L30.9387 11.1178ZM18.6813 27.524L32.1813 14.1008L27.9387 9.8822L14.4387 23.3055L18.6813 27.524ZM32.1813 14.1008L35.1813 11.1178L30.9387 6.89925L27.9387 9.8822L32.1813 14.1008ZM27.9387 14.1008L33.9387 20.0666L38.1813 15.8481L32.1813 9.8822L27.9387 14.1008Z" fill="#222222"/>
</g>
<defs>
<clipPath id="clip0_56_84">
<rect width="48" height="42" fill="white"/>
</clipPath>
</defs>
</svg>
