<svg width="39" height="39" viewBox="0 0 39 39" fill="none" xmlns="http://www.w3.org/2000/svg">
<path id="Vector" d="M4.10065 2.11439L5.53161 0.683427C6.44285 -0.227809 7.92022 -0.227809 8.83146 0.683427L14.865 6.71691C15.7761 7.62815 15.7761 9.10552 14.865 10.0168L10.6827 14.1991C9.98527 14.8964 9.81237 15.9618 10.2534 16.844C12.8032 21.9436 16.9381 26.0785 22.0376 28.6283C22.9199 29.0693 23.9853 28.8964 24.6827 28.199L28.865 24.0167C29.7761 23.1056 31.2536 23.1056 32.1648 24.0167L38.1983 30.0503C39.1095 30.9614 39.1095 32.4389 38.1983 33.3501L36.7673 34.7811C31.8409 39.7075 24.0415 40.2619 18.4679 36.0815L15.6483 33.9668C11.58 30.9157 7.96605 27.3018 4.91487 23.2334L2.80014 20.4138C-1.38012 14.8402 -0.825834 7.04087 4.10065 2.11439Z" fill="white"/>
</svg>
